<svg width="566" height="566" viewBox="0 0 566 566" fill="none" xmlns="http://www.w3.org/2000/svg">
<g clip-path="url(#clip0_192_2)">
<circle cx="283" cy="283" r="283" fill="white"/>
<path d="M302.863 111.095L260.675 35L256.216 138.638C256.216 138.638 246.721 152.604 239 158C231.931 162.941 217.5 168.5 217.5 168.5C217.5 168.5 198.5 177 179 182.5C159.785 187.92 142.812 193.725 142.812 193.725C142.812 193.725 135.433 195.976 132.471 198.394C120.517 208.153 122.066 235.274 122.066 235.274C122.066 235.274 121.984 248.601 127.021 254.881C133.239 262.636 152.226 262.817 152.226 262.817C152.226 262.817 165.699 262.829 184.366 264.685C192.15 265.459 203.625 268.419 203.625 268.419C203.625 268.419 215.695 271.398 222.521 274.955C230.414 279.069 241.35 287.56 241.35 287.56L333.946 287.093L385.545 174.118C385.545 174.118 374.944 161.511 366.716 154.978C353.467 144.458 331.039 138.171 331.039 138.171L305.272 99.4238L302.863 111.095ZM302.863 111.095L298.335 133.036M278.793 67.6787C278.793 67.6787 275.783 75.6366 272.007 78.8829C267.971 82.3517 258.566 84.0181 258.566 84.0181M288.628 85.4186C288.628 85.4186 284.918 92.4212 278.944 97.5564C272.007 103.519 257.622 105.96 257.622 105.96M298.204 102.692C298.204 102.692 294.831 109.106 285.881 115.763C276.466 122.766 256.718 126.967 256.718 126.967" stroke="black" stroke-width="5" stroke-linecap="round"/>
<path d="M409.188 138.272C409.994 142.903 411.085 149.189 412.223 155.809C414.501 169.076 416.953 183.614 417.689 188.932C419.231 200.066 420.713 218.171 421.706 228.968C422.532 237.954 422.034 246.527 421.322 252.872C420.967 256.039 420.561 258.637 420.244 260.437C420.086 261.337 419.95 262.036 419.854 262.507C419.807 262.742 419.77 262.92 419.745 263.037C419.736 263.08 419.728 263.114 419.723 263.14C419.714 263.173 419.7 263.22 419.683 263.282C419.646 263.414 419.59 263.612 419.517 263.867C419.37 264.378 419.151 265.122 418.87 266.051C418.307 267.909 417.491 270.497 416.481 273.412C414.447 279.284 411.681 286.325 408.668 291.424C405.951 296.022 401.594 301.487 397.842 305.871C395.979 308.047 394.29 309.927 393.068 311.263C392.458 311.931 391.965 312.462 391.625 312.825C391.455 313.006 391.324 313.146 391.235 313.239C391.191 313.286 391.158 313.32 391.136 313.344C391.131 313.348 391.127 313.352 391.123 313.356C391.122 313.357 391.122 313.358 391.121 313.359C391.112 313.368 391.099 313.382 391.081 313.4C391.045 313.437 390.991 313.491 390.92 313.561C390.778 313.703 390.57 313.91 390.309 314.167C389.784 314.682 389.047 315.399 388.193 316.2C386.468 317.821 384.341 319.721 382.574 321.03C378.319 324.182 372.347 327.737 367.371 330.534C364.897 331.925 362.694 333.115 361.11 333.957C360.319 334.378 359.682 334.712 359.244 334.939C359.026 335.053 358.857 335.14 358.743 335.199C358.686 335.228 358.644 335.251 358.615 335.265C358.601 335.273 358.59 335.278 358.583 335.281C358.58 335.283 358.577 335.284 358.575 335.285L358.574 335.286H358.573L358.567 335.29C358.565 335.291 358.561 335.292 358.557 335.295C358.546 335.3 358.531 335.308 358.51 335.319C358.468 335.341 358.404 335.373 358.32 335.416C358.152 335.501 357.901 335.629 357.574 335.793C356.921 336.121 355.963 336.598 354.752 337.192C352.328 338.381 348.888 340.035 344.832 341.891C336.707 345.611 326.167 350.119 316.385 353.345C308.792 355.848 300.712 358.808 294.542 361.137C291.455 362.302 288.84 363.311 286.996 364.029C286.074 364.388 285.345 364.675 284.846 364.872C284.596 364.97 284.404 365.047 284.273 365.098C284.224 365.118 284.183 365.134 284.151 365.146C284.102 365.162 284.031 365.186 283.94 365.216C283.749 365.278 283.468 365.371 283.106 365.491C282.384 365.732 281.339 366.085 280.042 366.539C277.448 367.446 273.837 368.754 269.769 370.363C261.672 373.564 251.601 378.014 244.13 382.909C238.473 386.615 230.886 392.563 224.77 397.531C222.413 399.445 220.262 401.226 218.506 402.692C218.608 401.629 218.724 400.463 218.857 399.228C219.442 393.811 220.318 387.151 221.491 381.944C222.755 376.334 224.042 368.524 225.353 360.852C226.675 353.113 228.022 345.512 229.42 340.128C230.662 335.343 232.753 326.53 234.528 318.94C235.417 315.139 236.229 311.635 236.818 309.082C237.113 307.806 237.352 306.767 237.518 306.047C237.6 305.687 237.665 305.406 237.709 305.216C237.731 305.121 237.748 305.048 237.759 304.999C237.762 304.986 237.763 304.975 237.766 304.966C237.775 304.933 237.789 304.887 237.805 304.83C237.843 304.694 237.9 304.492 237.976 304.23C238.126 303.706 238.35 302.943 238.638 301.993C239.214 300.091 240.046 297.443 241.073 294.47C243.142 288.477 245.942 281.324 248.953 276.227C251.677 271.618 255.886 266.262 259.478 261.998C261.261 259.88 262.871 258.058 264.034 256.765C264.615 256.12 265.085 255.607 265.407 255.258C265.568 255.083 265.693 254.948 265.776 254.858C265.814 254.817 265.844 254.786 265.864 254.763C265.872 254.756 265.881 254.748 265.891 254.738C265.932 254.698 265.993 254.638 266.073 254.56C266.233 254.405 266.467 254.179 266.759 253.899C267.344 253.338 268.162 252.561 269.097 251.699C270.987 249.955 273.274 247.933 275.047 246.62C279.334 243.444 285.196 239.759 290.033 236.845C292.442 235.393 294.578 234.144 296.112 233.257C296.879 232.813 297.496 232.461 297.919 232.22C298.13 232.099 298.294 232.006 298.404 231.944C298.442 231.923 298.472 231.904 298.497 231.89C298.545 231.868 298.615 231.835 298.705 231.792C298.891 231.703 299.164 231.571 299.516 231.401C300.22 231.061 301.243 230.565 302.514 229.94C305.055 228.692 308.596 226.929 312.595 224.876C320.572 220.779 330.446 215.484 337.834 210.772C344.548 206.49 352.67 200.484 359.078 195.579C362.29 193.12 365.086 190.926 367.079 189.347C368.076 188.558 368.873 187.922 369.421 187.482C369.695 187.263 369.907 187.092 370.051 186.976C370.123 186.918 370.178 186.874 370.215 186.845C370.233 186.83 370.247 186.818 370.257 186.81C370.262 186.807 370.265 186.804 370.268 186.802C370.269 186.801 370.27 186.799 370.271 186.799H370.271C370.272 186.798 370.272 186.798 368.698 184.855L370.271 186.798L370.312 186.765L370.351 186.731L370.352 186.73C370.352 186.73 370.353 186.729 370.354 186.728C370.357 186.726 370.36 186.722 370.364 186.719C370.373 186.711 370.386 186.7 370.402 186.685C370.436 186.656 370.486 186.612 370.55 186.555C370.678 186.442 370.866 186.274 371.107 186.057C371.591 185.624 372.288 184.994 373.151 184.203C374.877 182.622 377.265 180.397 379.92 177.814C385.201 172.676 391.64 166.025 395.975 160.206C399.945 154.876 404.104 147.62 407.239 141.774C407.932 140.483 408.575 139.253 409.161 138.123C409.17 138.172 409.179 138.222 409.188 138.272Z" fill="#F5C2E7" stroke="black" stroke-width="5" stroke-linecap="round"/>
<path d="M423.646 298.907C423.677 303.607 423.716 309.987 423.744 316.704C423.801 330.165 423.819 344.908 423.667 350.275C423.349 361.51 421.822 379.612 421.018 390.424C420.35 399.424 418.443 407.797 416.693 413.937C415.82 417.002 414.99 419.497 414.381 421.221C414.076 422.082 413.826 422.749 413.655 423.197C413.569 423.421 413.503 423.591 413.459 423.702C413.443 423.743 413.43 423.775 413.42 423.8C413.406 423.831 413.384 423.876 413.357 423.933C413.299 424.057 413.211 424.243 413.097 424.483C412.867 424.963 412.529 425.661 412.099 426.53C411.236 428.269 410.004 430.688 408.527 433.396C405.551 438.852 401.661 445.339 397.847 449.87C394.408 453.957 389.209 458.627 384.784 462.332C382.588 464.17 380.612 465.746 379.186 466.862C378.473 467.42 377.899 467.862 377.505 468.164C377.307 468.315 377.154 468.431 377.052 468.508C377.001 468.547 376.962 468.575 376.936 468.595C376.931 468.599 376.926 468.602 376.922 468.605C376.921 468.606 376.92 468.607 376.919 468.608C376.909 468.615 376.894 468.627 376.873 468.641C376.832 468.671 376.769 468.716 376.688 468.774C376.525 468.89 376.285 469.059 375.985 469.27C375.383 469.692 374.537 470.277 373.563 470.926C371.593 472.239 369.182 473.763 367.223 474.762C362.506 477.168 356.029 479.688 350.66 481.625C347.99 482.589 345.621 483.399 343.92 483.967C343.069 484.252 342.386 484.476 341.917 484.628C341.683 484.704 341.502 484.763 341.38 484.802C341.319 484.821 341.273 484.836 341.243 484.846C341.227 484.851 341.216 484.854 341.208 484.856C341.205 484.857 341.202 484.858 341.2 484.859L341.199 484.86L341.198 484.859L341.191 484.862C341.189 484.863 341.185 484.864 341.18 484.865C341.169 484.869 341.152 484.875 341.13 484.882C341.085 484.896 341.017 484.917 340.927 484.946C340.747 485.002 340.478 485.086 340.129 485.194C339.43 485.41 338.407 485.723 337.114 486.109C334.527 486.88 330.861 487.944 326.555 489.105C317.927 491.432 306.787 494.138 296.607 495.704C288.704 496.92 280.247 498.505 273.777 499.783C270.54 500.422 267.794 500.986 265.857 501.39C264.889 501.592 264.122 501.754 263.597 501.866C263.335 501.922 263.132 501.966 262.995 501.995C262.943 502.006 262.9 502.015 262.867 502.022C262.816 502.03 262.742 502.041 262.648 502.056C262.449 502.086 262.156 502.13 261.78 502.19C261.028 502.308 259.939 502.484 258.584 502.717C255.876 503.183 252.099 503.878 247.82 504.792C239.306 506.613 228.639 509.339 220.462 512.933C214.271 515.654 205.806 520.267 198.953 524.158C196.313 525.657 193.898 527.057 191.923 528.214C192.2 527.182 192.507 526.052 192.842 524.856C194.313 519.609 196.277 513.185 198.294 508.244C200.466 502.919 203.025 495.429 205.584 488.079C208.167 480.664 210.75 473.39 213.018 468.31C215.032 463.796 218.551 455.449 221.554 448.257C223.059 444.655 224.438 441.333 225.441 438.912C225.942 437.702 226.349 436.717 226.631 436.034C226.772 435.692 226.883 435.426 226.957 435.246C226.995 435.156 227.023 435.087 227.042 435.04C227.047 435.028 227.051 435.018 227.055 435.009C227.069 434.978 227.09 434.935 227.115 434.881C227.175 434.754 227.265 434.564 227.383 434.318C227.618 433.826 227.965 433.11 228.405 432.221C229.288 430.44 230.546 427.966 232.05 425.203C235.08 419.634 239.022 413.041 242.833 408.512C246.281 404.415 251.316 399.828 255.563 396.215C257.672 394.421 259.561 392.89 260.921 391.807C261.601 391.266 262.148 390.839 262.524 390.547C262.712 390.401 262.857 390.288 262.954 390.214C262.998 390.18 263.032 390.153 263.056 390.135C263.065 390.129 263.075 390.122 263.087 390.114C263.134 390.081 263.205 390.032 263.296 389.969C263.479 389.842 263.747 389.658 264.081 389.43C264.751 388.974 265.686 388.342 266.75 387.646C268.903 386.238 271.492 384.622 273.458 383.619C278.211 381.195 284.6 378.529 289.852 376.452C292.467 375.419 294.781 374.539 296.44 373.917C297.27 373.607 297.936 373.361 298.393 373.193C298.622 373.109 298.799 373.045 298.918 373.001C298.958 372.987 298.991 372.973 299.018 372.964C299.069 372.949 299.143 372.929 299.239 372.901C299.437 372.844 299.728 372.759 300.103 372.649C300.855 372.43 301.945 372.109 303.301 371.703C306.014 370.892 309.797 369.738 314.08 368.373C322.625 365.65 333.237 362.058 341.302 358.63C348.631 355.516 357.633 350.933 364.763 347.153C368.337 345.259 371.456 343.556 373.683 342.328C374.797 341.714 375.688 341.218 376.301 340.875C376.607 340.704 376.844 340.571 377.005 340.48C377.086 340.435 377.147 340.401 377.189 340.377C377.21 340.366 377.225 340.357 377.236 340.351C377.241 340.348 377.245 340.345 377.248 340.344C377.249 340.343 377.251 340.342 377.251 340.341L377.252 340.342C377.253 340.341 377.253 340.341 376.022 338.165L377.253 340.341L377.297 340.315L377.342 340.288L377.343 340.287C377.343 340.287 377.345 340.287 377.346 340.286C377.349 340.284 377.352 340.281 377.357 340.278C377.367 340.272 377.381 340.263 377.4 340.251C377.438 340.228 377.494 340.193 377.567 340.148C377.712 340.057 377.925 339.922 378.199 339.749C378.747 339.401 379.54 338.894 380.521 338.257C382.484 336.983 385.207 335.182 388.252 333.074C394.309 328.878 401.757 323.382 406.993 318.358C411.79 313.756 417.089 307.287 421.147 302.039C422.043 300.879 422.881 299.773 423.645 298.755C423.645 298.805 423.646 298.856 423.646 298.907Z" fill="#CBA6F7" stroke="black" stroke-width="5" stroke-linecap="round"/>
</g>
<defs>
<clipPath id="clip0_192_2">
<rect width="566" height="566" fill="white"/>
</clipPath>
</defs>
</svg>
